<?xml version="1.0" encoding="utf-8"?>
<!-- Generator: Adobe Adobe Illustrator 24.2.0, SVG Export Plug-In . SVG Version: 6.00 Build 0)  -->
<svg version="1.1" id="Layer_1" xmlns="http://www.w3.org/2000/svg" xmlns:xlink="http://www.w3.org/1999/xlink" x="0px" y="0px"
	 viewBox="0 0 216 216" style="enable-background:new 0 0 216 216;" xml:space="preserve">
<style type="text/css">
	.st0{fill:#858585;stroke:#000000;stroke-linejoin:round;stroke-miterlimit:10;}
	.st1{fill:#FFFFFF;stroke:#000000;stroke-linejoin:round;stroke-miterlimit:10;}
	.st2{stroke:#000000;stroke-width:2;stroke-miterlimit:10;}
	.st3{fill:url(#SVGID_1_);stroke:#000000;stroke-width:2;stroke-miterlimit:10;}
	.st4{fill:#32B43C;stroke:#000000;stroke-width:2;stroke-linejoin:round;stroke-miterlimit:10;}
	.st5{fill:#FFFFFF;stroke:#000000;stroke-miterlimit:10;}
</style>
<g>
	<path class="st0" d="M72.51,142.66v-6.94c0-4.19,3.4-7.59,7.59-7.59h32.93c4.19,0,7.59,3.4,7.59,7.59v6.94
		c0,4.19-3.4,7.59-7.59,7.59H80.1C75.91,150.25,72.51,146.85,72.51,142.66z"/>
	<ellipse class="st1" cx="87.07" cy="142.86" rx="3.08" ry="2.83"/>
	<ellipse class="st1" cx="96.03" cy="142.86" rx="3.08" ry="2.83"/>
	<ellipse class="st1" cx="104.99" cy="142.86" rx="3.08" ry="2.83"/>
	<ellipse class="st1" cx="113.95" cy="142.86" rx="3.08" ry="2.83"/>
	<path class="st1" d="M72.99,142.56c-1.52-4.24,2-3.66,4.16-3.12c4.61,1.15,4,1.39,4,3.1c0,1.71,0.76,3.46-4,3.1
		C74.14,145.46,74.11,145.68,72.99,142.56z"/>
	<path class="st2" d="M185.19,104.59l21.71,15.68c1.53,1.11,7.7,6.13,3.52-2.24V86.67c3.64-7.19-1.99-3.34-3.52-2.24l-21.71,15.68
		C183.76,101.16,183.76,103.56,185.19,104.59z"/>
	<linearGradient id="SVGID_1_" gradientUnits="userSpaceOnUse" x1="108" y1="100.9832" x2="108" y2="108.72">
		<stop  offset="0" style="stop-color:#F92D14"/>
		<stop  offset="0.027" style="stop-color:#F02C19"/>
		<stop  offset="0.1831" style="stop-color:#BD263E"/>
		<stop  offset="0.338" style="stop-color:#91215C"/>
		<stop  offset="0.488" style="stop-color:#6D1F73"/>
		<stop  offset="0.632" style="stop-color:#531E83"/>
		<stop  offset="0.7686" style="stop-color:#431E8E"/>
		<stop  offset="0.8945" style="stop-color:#3B1E94"/>
		<stop  offset="1" style="stop-color:#381E97"/>
	</linearGradient>
	<ellipse class="st3" cx="108" cy="102.41" rx="104.75" ry="36.66"/>
	<ellipse class="st4" cx="108" cy="102.41" rx="104.75" ry="15.88"/>
	<g>
		<path class="st5" d="M66.89,113.87c-1.5,0-3.56-0.27-3.56-2.49c0-2.33,0.4-5.22,0.4-7.67c0-3.28-0.18-6.13-0.18-9.13
			c0-0.58,0.03-1.15,0.05-1.73c0.05-1.12,0.95-2.46,2.01-2.46c0.11,0,0.24,0.03,0.34,0.06c4.88,0.97,14.31-1.03,14.31,8.68
			C80.24,107.74,73.62,113.87,66.89,113.87z M66.57,108.53c0,1.06,0.95,1.21,1.58,1.21c4.88,0,9.34-6.86,9.34-9.83
			c0-5.34-6.12-5.55-10.35-5.58C67.15,101.4,66.57,104.95,66.57,108.53z"/>
		<path class="st5" d="M95.29,112.62c-1,0-3.59-3.15-5.12-4.64c-2.22-2.15-3.51-3.09-4.78-3.09c-0.24,0-0.24,0.55-0.24,0.91
			c0,0.85,0.08,2.55,0.08,3.34c0,1.33-0.21,4.46-1.98,4.46c-1.27,0-1.32-1.97-1.32-4.55c0-4.76,0.24-9.53,0.24-14.47
			c0-0.73,0.03-1.43,0.18-2.15c0.42-2.12,2.75-2.27,4.46-2.27c3.11,0,10.14,0.82,10.14,5.92c0,3.82-3.56,7.07-6.52,7.13
			c0.21,0.15,1.87,1.97,2.77,2.82c1.56,1.52,3.72,2.55,3.72,4.67C96.92,111.78,96.29,112.62,95.29,112.62z M84.96,100.92
			c0.18,0.21,0.92,0.3,1.5,0.3c3.04,0,7.02-1.36,7.02-4.13c0-2.67-4.54-3.49-6.86-3.49c-0.32,0-0.61,0.03-0.92,0.24
			C84.89,94.45,84.99,99.1,84.96,100.92z"/>
		<path class="st5" d="M112.6,97.4c-2.11,0,0.26-3.79-2.85-3.79c-2.98,0-8.13,7.19-8.13,12.38c0,2.15,1.87,3.34,3.64,3.34
			c2.59,0,7.37-1.73,7.37-4.55c0-0.39-0.37-0.7-0.66-0.7c-1.56,0.03-2.09,0.7-3.67,0.7c-0.87,0-1.66-0.64-1.66-1.58
			c0-1.88,4.38-3.28,7.76-3.28c1.06,0,2.08,0.3,2.08,1.73c0,7.1-5.04,11.5-10.53,11.5c-3.88,0-7.39-1.88-7.39-6.86
			c0-8.37,7.21-16.5,13.15-16.5c1.95,0,2.59,2.88,2.59,4.49C114.29,95.43,113.97,97.4,112.6,97.4z"/>
		<path class="st5" d="M118.75,110.29c-0.03-1.21-0.05-2.46-0.05-3.7c0-4.55,0.18-9.22,0.18-14.5c0-0.64,0.4-1.27,0.84-1.43
			c1.58-0.58,3.8-1.03,5.15-1.03c3.06,0,7.37,1.46,7.37,5.25c0,2.43-2.22,4.91-3.38,5.61c1.08,0.06,4.54,0.3,4.54,3.55
			c0,6.61-6.94,9.37-11.85,9.37C119.51,113.41,118.8,111.62,118.75,110.29z M124.24,93.15c-1.03,0-1.95,0.15-2.51,0.36
			c0,1.97-0.03,3.94-0.03,6.04c0,0.46,0.03,0.82,0.63,0.82c1.69,0,6.36-2.06,6.36-4.79C128.7,93.76,126.3,93.15,124.24,93.15z
			 M125.48,103.31c-1.66,0-3.25,0.21-3.75,0.55c0,2.64,0,4.16,0.03,5.76c0.24,0.39,1.06,0.39,1.64,0.39c2.88,0,7.1-3.06,7.1-5.01
			C130.5,103.77,127.88,103.31,125.48,103.31z"/>
		<path class="st5" d="M135.24,111.53c0-4.07,0.58-7.83,0.58-12.23c0-2.15-0.05-4.13-0.05-6.55c0-1.09,0.13-3.28,1.64-3.28
			c1.43,0,1.58,2,1.58,3.67c0,3-0.11,5.28-0.21,8.22c-0.11,2.7-0.42,5.13-0.42,7.71c0,0.27,0.13,0.36,0.29,0.36
			c2.72,0,6.34-2.12,8.24-2.12c0.82,0,1.4,0.64,1.4,1.94c0,2.52-5.07,2.94-7.71,3.61c-1.29,0.33-2.11,0.79-3.46,0.94
			C135.9,113.81,135.24,112.96,135.24,111.53z"/>
	</g>
</g>
</svg>
